<mxfile host="app.diagrams.net" modified="2021-09-28T18:52:20.884Z" agent="5.0 (Windows NT 10.0; Win64; x64) AppleWebKit/537.36 (KHTML, like Gecko) Chrome/93.0.4577.82 Safari/537.36" etag="yey0vSj0sdag5HIpcAkW" version="15.3.0" type="github">
  <diagram id="rG8GQleSzizUVMCqJZ-P" name="Page-1">
    <mxGraphModel dx="868" dy="393" grid="1" gridSize="10" guides="1" tooltips="1" connect="1" arrows="1" fold="1" page="1" pageScale="1" pageWidth="827" pageHeight="1169" math="0" shadow="0">
      <root>
        <mxCell id="0" />
        <mxCell id="1" parent="0" />
        <mxCell id="Tfle5zRUVsKQlPc0uU2D-1" value="Base de Datos" style="shape=cylinder3;whiteSpace=wrap;html=1;boundedLbl=1;backgroundOutline=1;size=15;" vertex="1" parent="1">
          <mxGeometry x="630" y="170" width="60" height="80" as="geometry" />
        </mxCell>
        <mxCell id="Tfle5zRUVsKQlPc0uU2D-2" value="Inicio" style="ellipse;whiteSpace=wrap;html=1;aspect=fixed;" vertex="1" parent="1">
          <mxGeometry x="30" y="185" width="40" height="40" as="geometry" />
        </mxCell>
        <mxCell id="Tfle5zRUVsKQlPc0uU2D-4" value="DATALOGGER" style="whiteSpace=wrap;html=1;aspect=fixed;" vertex="1" parent="1">
          <mxGeometry x="170" y="160" width="90" height="90" as="geometry" />
        </mxCell>
        <mxCell id="Tfle5zRUVsKQlPc0uU2D-5" value="Pagina Web" style="swimlane;fontStyle=0;childLayout=stackLayout;horizontal=1;startSize=26;horizontalStack=0;resizeParent=1;resizeParentMax=0;resizeLast=0;collapsible=1;marginBottom=0;" vertex="1" parent="1">
          <mxGeometry x="580" width="140" height="52" as="geometry" />
        </mxCell>
        <mxCell id="Tfle5zRUVsKQlPc0uU2D-6" value="Consulta Reportes" style="text;strokeColor=none;fillColor=none;align=left;verticalAlign=top;spacingLeft=4;spacingRight=4;overflow=hidden;rotatable=0;points=[[0,0.5],[1,0.5]];portConstraint=eastwest;" vertex="1" parent="Tfle5zRUVsKQlPc0uU2D-5">
          <mxGeometry y="26" width="140" height="26" as="geometry" />
        </mxCell>
        <mxCell id="Tfle5zRUVsKQlPc0uU2D-9" value="" style="endArrow=classic;html=1;exitX=0.557;exitY=1.077;exitDx=0;exitDy=0;exitPerimeter=0;entryX=0.5;entryY=0;entryDx=0;entryDy=0;entryPerimeter=0;" edge="1" parent="1" source="Tfle5zRUVsKQlPc0uU2D-6" target="Tfle5zRUVsKQlPc0uU2D-1">
          <mxGeometry width="50" height="50" relative="1" as="geometry">
            <mxPoint x="390" y="250" as="sourcePoint" />
            <mxPoint x="560" y="170" as="targetPoint" />
          </mxGeometry>
        </mxCell>
        <mxCell id="Tfle5zRUVsKQlPc0uU2D-10" value="" style="endArrow=classic;html=1;exitX=1.033;exitY=0.422;exitDx=0;exitDy=0;exitPerimeter=0;" edge="1" parent="1" source="Tfle5zRUVsKQlPc0uU2D-4">
          <mxGeometry width="50" height="50" relative="1" as="geometry">
            <mxPoint x="390" y="250" as="sourcePoint" />
            <mxPoint x="360" y="198" as="targetPoint" />
          </mxGeometry>
        </mxCell>
        <mxCell id="Tfle5zRUVsKQlPc0uU2D-11" value="DATALOGGER" style="whiteSpace=wrap;html=1;aspect=fixed;" vertex="1" parent="1">
          <mxGeometry x="170" y="270" width="90" height="90" as="geometry" />
        </mxCell>
        <mxCell id="Tfle5zRUVsKQlPc0uU2D-12" value="" style="endArrow=classic;html=1;exitX=1;exitY=0.5;exitDx=0;exitDy=0;" edge="1" parent="1" source="Tfle5zRUVsKQlPc0uU2D-11">
          <mxGeometry width="50" height="50" relative="1" as="geometry">
            <mxPoint x="272.97" y="207.98000000000002" as="sourcePoint" />
            <mxPoint x="370" y="200" as="targetPoint" />
            <Array as="points">
              <mxPoint x="360" y="315" />
              <mxPoint x="360" y="200" />
            </Array>
          </mxGeometry>
        </mxCell>
        <mxCell id="Tfle5zRUVsKQlPc0uU2D-14" value="" style="endArrow=classic;html=1;entryX=0;entryY=0.5;entryDx=0;entryDy=0;" edge="1" parent="1" source="Tfle5zRUVsKQlPc0uU2D-2" target="Tfle5zRUVsKQlPc0uU2D-4">
          <mxGeometry width="50" height="50" relative="1" as="geometry">
            <mxPoint x="390" y="250" as="sourcePoint" />
            <mxPoint x="440" y="200" as="targetPoint" />
          </mxGeometry>
        </mxCell>
        <mxCell id="Tfle5zRUVsKQlPc0uU2D-24" style="edgeStyle=orthogonalEdgeStyle;rounded=0;orthogonalLoop=1;jettySize=auto;html=1;entryX=0.5;entryY=1;entryDx=0;entryDy=0;" edge="1" parent="1" source="Tfle5zRUVsKQlPc0uU2D-17" target="Tfle5zRUVsKQlPc0uU2D-22">
          <mxGeometry relative="1" as="geometry" />
        </mxCell>
        <mxCell id="Tfle5zRUVsKQlPc0uU2D-17" value="Web Service" style="swimlane;fontStyle=0;childLayout=stackLayout;horizontal=1;startSize=26;horizontalStack=0;resizeParent=1;resizeParentMax=0;resizeLast=0;collapsible=1;marginBottom=0;" vertex="1" parent="1">
          <mxGeometry x="590" y="310" width="140" height="78" as="geometry" />
        </mxCell>
        <mxCell id="Tfle5zRUVsKQlPc0uU2D-18" value="Leer CSV" style="text;strokeColor=none;fillColor=none;align=left;verticalAlign=top;spacingLeft=4;spacingRight=4;overflow=hidden;rotatable=0;points=[[0,0.5],[1,0.5]];portConstraint=eastwest;" vertex="1" parent="Tfle5zRUVsKQlPc0uU2D-17">
          <mxGeometry y="26" width="140" height="26" as="geometry" />
        </mxCell>
        <mxCell id="Tfle5zRUVsKQlPc0uU2D-19" value="Insertar BD" style="text;strokeColor=none;fillColor=none;align=left;verticalAlign=top;spacingLeft=4;spacingRight=4;overflow=hidden;rotatable=0;points=[[0,0.5],[1,0.5]];portConstraint=eastwest;" vertex="1" parent="Tfle5zRUVsKQlPc0uU2D-17">
          <mxGeometry y="52" width="140" height="26" as="geometry" />
        </mxCell>
        <mxCell id="Tfle5zRUVsKQlPc0uU2D-21" value="" style="endArrow=classic;html=1;entryX=0.5;entryY=1;entryDx=0;entryDy=0;entryPerimeter=0;exitX=0.5;exitY=0;exitDx=0;exitDy=0;" edge="1" parent="1" source="Tfle5zRUVsKQlPc0uU2D-17" target="Tfle5zRUVsKQlPc0uU2D-1">
          <mxGeometry width="50" height="50" relative="1" as="geometry">
            <mxPoint x="390" y="250" as="sourcePoint" />
            <mxPoint x="440" y="200" as="targetPoint" />
          </mxGeometry>
        </mxCell>
        <mxCell id="Tfle5zRUVsKQlPc0uU2D-22" value="Archivo .dat" style="rounded=0;whiteSpace=wrap;html=1;" vertex="1" parent="1">
          <mxGeometry x="380" y="175" width="120" height="60" as="geometry" />
        </mxCell>
      </root>
    </mxGraphModel>
  </diagram>
</mxfile>
